<svg width="192px" height="81px" viewBox="0 0 192 81" version="1.1" xmlns="http://www.w3.org/2000/svg"
  xmlns:xlink="http://www.w3.org/1999/xlink">
  <g id="Page-1" stroke="none" stroke-width="1" fill="none" fill-rule="evenodd">
    <g id="Group-2" transform="translate(-0.000000, -0.000000)">
      <rect id="Rectangle" x="2.84217094e-14" y="7.10542736e-15" width="192" height="80"></rect>
      <path
        d="M35.291953,39.8686752 C34.1657924,39.2860435 33.2853655,38.9648472 32.2356083,38.7536682 C30.9357648,38.4921902 30.0200719,38.0273884 28.3879975,36.8006384 C27.3801174,36.0430571 26.7214167,35.6794794 26.3565921,35.6793915 C26.0685648,35.679315 25.799739,35.8952264 25.4953156,36.3711138 C25.3609934,36.5810885 25.2063645,36.7528813 25.1516931,36.7528813 C25.0468503,36.7528813 24.8951459,36.3427962 24.7545554,35.679332 C24.5172096,34.5592696 23.9976938,33.3551216 23.4625982,32.6848167 C23.1349948,32.2744227 22.9293501,32.1519002 22.7371118,32.2525491 C22.6706832,32.2873418 22.4170604,32.5733854 22.173503,32.8882284 C21.9243802,33.2102578 21.6768216,33.4606615 21.6075677,33.4606615 C21.4379229,33.4606615 21.3444207,33.3372208 20.7623869,32.3449234 C20.2482241,31.4683362 19.8575983,31.0272755 19.5954062,31.0272755 C19.3202022,31.0272755 19.0204716,31.2525155 17.8706815,32.3233331 C16.7730683,33.3455719 16.1402964,33.8163444 15.861912,33.8178406 C15.793026,33.8178406 15.736664,33.7874374 15.736664,33.7494596 C15.736664,33.7114818 15.671013,33.6452714 15.5907755,33.602326 C15.3844963,33.4919347 14.8393774,33.7556286 14.16212,34.2934419 C13.0904868,35.1444205 12.4571098,35.4979526 11.8567335,35.5802502 C11.5842476,35.6175904 11.5063897,35.6001431 11.3794388,35.4731772 C11.2960058,35.389749 11.2277438,35.2570703 11.2277438,35.1783433 C11.2277438,35.0592722 11.1800301,35.0352053 10.943964,35.0352053 C10.512061,35.0352053 10.0960409,35.197216 8.63332463,35.935032 L7.29138414,36.6119451 L7.29138414,35.8923133 C7.29138414,34.5861959 7.40748656,33.8687857 7.91095142,32.0639607 C8.05863193,31.5345523 8.00697252,31.2419825 7.76581051,31.2419825 C7.58952082,31.2419825 7.36017013,31.3885465 6.8322563,31.8385562 C6.65514227,31.9895267 6.47664764,32.0922952 6.43560144,32.0669361 C6.31231549,31.9907339 6.35520702,31.6073087 6.57992113,30.7767783 C7.06232874,28.9938354 7.14091069,28.6620665 7.28342926,27.8066133 C7.36540462,27.3145707 7.48144271,26.3966874 7.54129193,25.7668597 C7.68144063,24.2920212 7.83567418,23.258507 8.01921967,22.5642598 C8.18185129,21.9491222 8.15605601,21.6985202 7.9167776,21.569021 C7.81481641,21.5138395 7.17744869,21.463056 6.16330907,21.4293033 C4.14912287,21.3622739 4.0537082,21.3295017 3.99740598,20.6853806 C3.97676216,20.4491966 3.92232511,20.1892064 3.87643605,20.1076201 C3.68896525,19.7743323 2.97459482,19.4055631 1.72680403,18.9979632 C1.32332721,18.8661715 0.993209482,18.7394324 0.993209482,18.7163317 C0.993209482,18.6932367 1.33376672,18.5176608 1.75000303,18.326182 C2.75733969,17.8627857 3.42659523,17.2579459 3.42659523,16.8109598 C3.42659523,16.5454409 3.75425242,16.0341232 4.30603402,15.4385639 C4.94511672,14.7487856 5.2548315,14.1908471 5.18220579,13.8601833 C5.14454223,13.6886994 5.17774264,13.6211713 5.39233859,13.4327529 C5.72869934,13.137423 5.92055818,13.0431557 6.85563496,12.7137841 C8.15543486,12.255942 8.51979497,11.9730976 8.59875891,11.3606436 C8.68653127,10.6798708 9.02554751,10.4519387 10.8567572,9.84250264 C11.6867101,9.56629206 12.2841512,9.32893208 12.3273465,9.25825003 C12.5983085,8.81485428 10.6080957,7.3773002 8.24579158,6.31009845 C6.37422342,5.46458948 5.30015892,5.25637116 3.56817668,5.40329534 C2.99826196,5.45164381 2.04886967,5.50562378 1.4584157,5.52325561 C0.214617652,5.56039748 0.0411957037,5.513244 0.00403371601,5.12774133 C-0.0155247774,4.92483514 0.0286816117,4.84373965 0.301224202,4.58259806 C1.18905597,3.73190788 3.87786199,3.31056771 5.5989108,3.75244628 C7.50837659,4.24270279 10.1044577,5.4790002 12.3029602,6.94502604 C12.9380499,7.36852098 13.3868048,7.6221659 13.4779229,7.60913352 C13.6069747,7.59065752 13.6315685,7.51939455 13.6753025,7.03713997 C13.8057844,5.59829964 15.1708576,2.90019924 15.7683415,2.90019924 C15.9766806,2.90019924 16.4464452,3.24158648 16.738933,3.60555156 C17.1946936,4.17268383 17.5366082,4.1544521 18.5522556,3.50886596 C18.8931322,3.29218806 19.453839,2.935606 19.7982711,2.71645708 C20.7738012,2.09576707 22.7155074,1.16482982 24.3250847,0.546109832 C25.1320355,0.235917 25.8015639,-0.00956476297 25.8129244,0.000286441312 C25.8242877,0.0107494897 25.6551954,0.356080167 25.4371786,0.768001536 C25.2191617,1.17991922 25.0407833,1.60490159 25.0407833,1.71240615 C25.0407833,1.94710864 25.0175182,1.95166926 26.1859101,1.48808734 C26.6385892,1.30847763 27.1593688,1.14629374 27.3431965,1.12767804 L27.677428,1.09382756 L27.7543273,1.37077265 C27.7966209,1.52308775 27.8328163,1.95367583 27.8347631,2.3276327 C27.8403172,3.39582512 28.0330939,3.78036828 28.6057253,3.86561095 C28.7903239,3.89307559 28.9816157,3.94870564 29.0308179,3.98920635 C29.1739475,4.10701467 29.1355701,4.49875979 28.9131411,5.19043421 C28.7992105,5.54470846 28.7345983,5.83456834 28.7695582,5.83456834 C28.8045351,5.83456834 29.5992668,5.45103881 30.5356658,4.98227851 C32.1537471,4.17226982 32.9434688,3.83671641 33.029436,3.9226814 C33.0941276,3.98737377 32.9134481,4.27293174 32.5216435,4.72523026 C32.3170501,4.96141366 32.0911073,5.24515379 32.0195439,5.35576469 C31.8992345,5.54172623 31.8982285,5.56566768 32.006197,5.67362931 C32.103196,5.77062663 32.3805883,5.7992089 33.6454606,5.84254023 C34.6556446,5.87715298 35.4569761,5.94526992 36.0268134,6.04499642 C37.9885711,6.38832166 39.44883,6.91776401 39.3248821,7.2407631 C39.2347577,7.47562172 40.2539729,7.85917733 42.2534194,8.34284906 C43.4843321,8.6406131 44.0784546,8.84616431 44.0784546,8.97426932 C44.0784546,9.01289891 43.9446084,9.11937963 43.7810193,9.21089819 C43.1733345,9.55086233 43.4013969,9.61270593 45.5814322,9.69911242 C47.3136114,9.76776834 47.8317188,9.85068082 47.9719125,10.0816649 C48.0383128,10.1910644 47.9992015,10.2579265 47.7213785,10.5099964 C47.3384066,10.85747 46.712719,11.2328333 45.0943288,12.0860024 C43.6824674,12.8302935 43.3336308,13.0576872 43.3054379,13.2521301 C43.2811527,13.419508 43.3760349,13.4675059 44.2036976,13.7065945 C44.8457585,13.8920686 44.8629225,13.9836297 44.3468384,14.470206 C43.6705997,15.1077953 42.7295307,15.6773039 41.3010975,16.3134169 C39.1534435,17.2698136 39.1329073,17.6331958 41.142731,19.1157619 C41.6135375,19.4630541 41.9864411,19.7595146 41.9714024,19.774559 C41.9563836,19.7895778 41.0957759,19.6071726 40.0589887,19.3691835 C37.9493493,18.8849139 37.0111197,18.7179101 36.3978495,18.717485 C35.3948434,18.7169183 35.4761407,19.0862145 36.6960103,20.0722918 C37.5774744,20.7848223 37.609626,20.932568 36.8836863,20.9347755 C36.4649271,20.935909 36.2057331,21.0851707 36.2057331,21.3248289 C36.2057331,21.5764567 36.3638928,21.9077213 36.9975772,22.9833817 C37.3158746,23.523683 37.6247412,24.0868185 37.6839608,24.2348023 C37.8273396,24.5931376 37.7892031,24.8301008 37.5834621,24.8593224 C37.1581909,24.9197179 37.5707952,25.4845736 38.8422787,26.5826546 C39.6891569,27.3140436 39.8558178,27.4912121 39.8558178,27.6600918 C39.8558178,27.6911496 39.5579008,27.7392694 39.1937875,27.7670089 C38.4918382,27.8204873 38.2096994,27.9341459 38.2096994,28.1634467 C38.2096994,28.2397906 38.3590065,28.714094 38.5414995,29.2174489 C39.0932916,30.7394494 39.8461916,33.2154181 39.9872043,33.9717526 C40.0927102,34.5376538 39.9375288,34.6334258 39.2520266,34.4254858 C38.7934051,34.2863604 38.639122,34.3358828 38.639122,34.6222042 C38.639122,35.0024444 39.1487225,35.7583509 40.2414676,36.9989919 C40.8961443,37.7422827 41.5844832,38.5973674 41.8460886,38.9923345 C41.9707337,39.1805262 42.0029221,39.2864685 41.9511695,39.3382155 C41.7318265,39.5575642 39.4650277,39.289886 37.6399556,38.8291223 C36.6298934,38.5741251 36.2532606,38.5671484 36.2196666,38.8028251 C36.2076516,38.8871573 36.2801019,39.2400376 36.3806912,39.5870096 C36.4812863,39.9339788 36.5635867,40.2595107 36.5635867,40.3104302 C36.5635867,40.4840423 36.3133332,40.3971115 35.2919615,39.8686893 L35.291953,39.8686752 Z"
        id="path929" fill="white" opacity="0.2"></path>
      <path
        d="M136.162058,38.5958174 C134.734647,36.7486364 134.328612,36.0869348 133.977171,35.0352053 C133.600326,33.9074436 133.483539,32.7247413 133.725158,32.4831166 C133.838145,32.3701296 133.86368,32.3707077 134.133401,32.4923262 C134.368015,32.5981212 134.441228,32.6053699 134.530114,32.5316076 C134.688112,32.400479 134.664291,32.0221318 134.459653,31.4125313 C134.090654,30.3133055 133.418632,29.2101152 132.503183,28.2007898 C132.182128,27.8468128 131.919451,27.5214623 131.919451,27.4777943 C131.919451,27.4285382 132.166409,27.3823765 132.569648,27.3562551 C133.318694,27.3077216 133.565703,27.1926546 133.565292,26.8924422 C133.565009,26.5983649 133.341973,26.286894 132.534512,25.4521782 C131.451311,24.3324219 131.390961,24.2036538 131.776311,23.8344652 C132.276188,23.3555514 131.986597,22.9628399 129.717608,21.0427949 L129.126098,20.5422397 L130.268904,20.5064666 C131.017607,20.4830315 131.441223,20.4410921 131.497292,20.3848877 C131.601837,20.2801015 131.489924,20.0914366 130.953729,19.4686961 C130.449155,18.8826639 130.344908,18.7164592 130.344908,18.4980655 C130.344908,18.1771753 130.574526,18.1297922 132.420437,18.0697509 C133.345484,18.0396735 134.158701,17.9924549 134.227583,17.9648372 C134.436373,17.881137 134.371537,17.7422779 133.959197,17.390004 C133.742699,17.2050399 133.565561,16.9937504 133.565561,16.9204698 C133.565561,16.7249982 134.046776,16.5074489 135.674623,15.967006 C136.456855,15.7073048 137.329832,15.3827675 137.614569,15.2458156 C138.109029,15.0079909 138.503902,14.660387 138.503902,14.4629488 C138.503902,14.2996713 138.213886,13.9955909 137.814487,13.7400978 C137.600434,13.6031685 137.404662,13.4373605 137.379445,13.371629 C137.303824,13.1745677 137.817292,12.7923893 139.043903,12.1327563 C140.302754,11.4557836 140.722581,11.1794427 140.722581,11.0277921 C140.722581,10.9053943 140.625137,10.872588 139.971093,10.7747786 C138.458917,10.548643 137.182063,10.1082879 136.696757,9.64554334 C136.467912,9.42734514 136.460587,9.3910959 136.614241,9.23744186 C136.968155,8.88353004 136.468717,8.78606629 133.816061,8.69138811 C131.630262,8.613378 131.207499,8.57405131 131.187603,8.44689277 C131.181426,8.40753208 131.414461,8.24424898 131.705419,8.08404616 C132.603877,7.58935399 132.811222,7.3130822 132.457837,7.08153622 C132.110681,6.85406771 131.732518,6.82480336 129.199781,6.82939714 C127.802374,6.83194751 126.547519,6.80933424 126.411213,6.77922091 C126.197416,6.73195691 126.16302,6.69527722 126.160719,6.51211117 C126.158169,6.30156095 126.154882,6.29992532 125.776512,6.31590026 C125.566667,6.32475854 124.837917,6.4777424 124.157067,6.65585788 C123.476215,6.83397165 122.866898,6.97970652 122.803028,6.97970652 C122.63004,6.97970652 122.659825,6.74357724 122.891308,6.27985363 C123.287723,5.48572949 123.250034,5.35243986 122.606398,5.27225825 C122.050741,5.20304097 122.035002,5.11982301 122.420334,4.2882059 C122.965334,3.1119861 122.999883,2.70216906 122.567876,2.53792108 C122.338377,2.45066475 122.115027,2.49299407 120.710598,2.88990567 C119.564026,3.213947 119.073599,3.30389907 119.010463,3.20174207 C118.98666,3.16322583 119.030724,2.94701947 119.108392,2.72128209 C119.265452,2.2647749 119.249495,2.1845029 119.001679,2.1845029 C118.635808,2.1845029 116.25318,3.4932577 114.141884,4.85393773 C112.935176,5.63163353 112.752847,5.64059581 112.234032,4.94772782 C111.992724,4.62546466 111.762257,4.49371998 111.569323,4.56775605 C111.408122,4.62961524 110.881872,5.72428133 110.732425,6.30861017 C110.402049,7.60036309 110.684527,8.93351727 111.451021,9.70000788 C112.414605,10.663591 115.917971,11.7119993 120.168073,12.3086467 C121.396565,12.4811083 124.253349,12.7793371 125.748064,12.8911566 C127.11711,12.9935766 126.266695,12.9916326 123.50224,12.8860275 C118.882024,12.7095222 116.111374,12.5262952 114.921537,12.3185733 C114.321886,12.2138864 114.098478,12.2540065 114.098478,12.4663814 C114.098478,12.8099274 115.217431,14.5373487 117.576708,17.8360266 C120.353371,21.7182884 123.136084,25.3093859 126.043195,28.7620551 C126.800516,29.6614964 127.408391,30.4091568 127.394029,30.4235154 C127.358619,30.4589258 124.931892,27.8745353 123.789542,26.5848281 C121.368078,23.8509916 119.284174,21.3069848 115.850877,16.8933707 C113.825697,14.2899403 113.345113,13.7109584 113.301105,13.8215367 C113.271277,13.8964836 113.145663,14.5858284 113.021964,15.3534156 C112.68628,17.4363895 112.350777,19.0791613 111.915472,20.7712515 C111.229989,23.4358001 110.54416,25.3497242 110.345883,25.1514416 C110.284028,25.0895923 110.514171,24.1385627 110.80308,23.2621654 C111.178383,22.1236695 111.336634,21.4733878 111.552066,20.1844032 C111.980758,17.6194125 112.220399,13.8072802 112.014126,12.8340907 C111.88984,12.2477184 111.692222,11.9261425 111.111252,11.3648772 C110.428028,10.7048304 110.031338,10.4441233 109.544442,10.335163 C109.205233,10.259247 109.055454,10.2677029 108.380571,10.4008633 C107.403317,10.5936769 106.665594,10.86543 106.332105,11.1554494 C106.126972,11.333842 106.063917,11.4489175 106.031883,11.7033394 C106.009581,11.8804739 105.947416,12.1124554 105.893743,12.2188454 C105.75351,12.4968214 105.255787,12.8136226 104.515379,13.0961694 C103.403734,13.5203864 103.005103,13.7916209 103.005103,14.1237724 C103.005103,14.3964607 102.75473,14.7365495 102.306418,15.0728212 C101.295149,15.8313575 101.035251,16.2096055 101.110654,16.8131078 C101.152627,17.1490508 101.138105,17.2105997 100.969594,17.4108603 C100.866277,17.5336464 100.671685,17.6704312 100.537168,17.7148218 C100.263878,17.8050198 99.8560161,18.2257654 99.8560161,18.4174965 C99.8560161,18.7677698 100.188555,18.9544369 100.954987,19.0343796 C101.633368,19.1051382 101.671033,19.1444564 101.614082,19.7224124 L101.565797,20.2124232 L101.802352,20.3390859 C101.99961,20.4447108 102.273322,20.4703704 103.45003,20.4935334 L104.861153,20.5213324 L104.826272,20.8180763 C104.712053,21.7898036 104.579647,23.7880485 104.579647,24.5400899 C104.579647,25.5679054 104.63237,25.6953219 105.05768,25.6953219 C105.319136,25.6953219 105.330081,25.7047299 105.307139,25.9100289 C105.293939,26.0281223 105.024107,26.6722491 104.707507,27.3414318 C103.975681,28.8882558 103.779513,29.4088966 103.806622,29.7324562 C103.825953,29.9631739 103.851339,29.991772 104.054292,30.0114693 C104.208137,30.0263748 104.465019,29.9406088 104.857869,29.7430827 C105.175462,29.583407 105.486895,29.4527459 105.549942,29.4527459 C105.708012,29.4527459 105.66779,29.6205658 105.07821,31.4209277 C104.499873,33.1869645 104.367428,33.7133464 104.365994,34.2515337 C104.364379,34.8480989 104.544441,34.9500258 105.101382,34.6678502 C105.460872,34.4857113 105.722321,34.286026 106.762537,33.3990786 C107.55101,32.7267986 107.966941,32.4583326 108.066235,32.557627 C108.095394,32.5867975 108.14038,32.8743686 108.166205,33.1966955 C108.221898,33.8917985 108.333173,34.17638 108.549266,34.17638 C109.193423,34.17638 111.024453,32.1474654 111.135455,31.3106894 C111.161352,31.1154559 111.210352,30.9557206 111.244341,30.9557206 C111.278328,30.9557206 111.394955,31.0583106 111.503508,31.1836896 C112.091895,31.8632693 112.202077,31.9627479 112.448032,32.0364308 C112.67553,32.1045937 112.755784,32.0950128 112.999722,31.970569 C113.600234,31.6642045 114.035033,31.0399962 115.077327,28.9879072 C115.539603,28.0777714 115.893261,27.4583123 115.915177,27.5203515 C115.936033,27.579401 116.113256,28.2637301 116.308994,29.0410796 C116.817328,31.0598777 117.222666,31.8366066 117.704711,31.7156285 C117.799259,31.69191 118.044231,31.4790053 118.24909,31.2425351 C118.556058,30.8882011 118.660887,30.8125826 118.845177,30.8125826 C119.167515,30.8125826 119.734017,31.4411635 120.386285,32.5225594 C121.259412,33.9701203 121.794848,34.5267411 122.233534,34.4428793 C122.74927,34.3442934 123.51249,34.7841385 125.041671,36.06121 C126.276089,37.0921172 126.735785,37.4108113 127.180708,37.5441077 C127.448327,37.6242885 127.497602,37.6199018 127.625042,37.5045713 C127.704457,37.4327076 127.768378,37.2840579 127.768378,37.1712353 C127.768378,36.7748032 128.121241,36.9134469 129.509764,37.8554425 C130.512869,38.5359716 130.784316,38.6355549 131.012948,38.4069229 C131.132215,38.2876563 131.168062,38.149432 131.186583,37.737369 C131.221339,36.9638223 131.244774,36.8960534 131.477285,36.8960534 C131.586869,36.8960534 131.948577,37.0283467 132.281082,37.1900429 C133.417481,37.7426567 134.173966,38.0581005 135.104321,38.3673157 C136.115346,38.7033579 136.271137,38.7370114 136.162058,38.5958372 L136.162058,38.5958174 Z"
        id="path929-copy-2" fill="white" opacity="0.2"
        transform="translate(120.289299, 20.429444) scale(-1, 1) translate(-120.289299, -20.429444) "></path>
      <path
        d="M88.1620576,78.5958174 C86.7346474,76.7486364 86.3286118,76.0869348 85.977171,75.0352053 C85.6003257,73.9074436 85.4835386,72.7247413 85.7251577,72.4831166 C85.8381447,72.3701296 85.8636796,72.3707077 86.1334009,72.4923262 C86.368015,72.5981212 86.4412275,72.6053699 86.5301136,72.5316076 C86.6881117,72.400479 86.6642913,72.0221318 86.4596525,71.4125313 C86.0906539,70.3133055 85.4186317,69.2101152 84.5031826,68.2007898 C84.182128,67.8468128 83.9194514,67.5214623 83.9194514,67.4777943 C83.9194514,67.4285382 84.1664093,67.3823765 84.569648,67.3562551 C85.3186941,67.3077216 85.565703,67.1926546 85.5652921,66.8924422 C85.5650087,66.5983649 85.3419733,66.286894 84.5345125,65.4521782 C83.4513114,64.3324219 83.3909612,64.2036538 83.7763105,63.8344652 C84.2761885,63.3555514 83.9865969,62.9628399 81.7176077,61.0427949 L81.1260978,60.5422397 L82.2689038,60.5064666 C83.0176071,60.4830315 83.4412233,60.4410921 83.4972917,60.3848877 C83.601837,60.2801015 83.489924,60.0914366 82.9537288,59.4686961 C82.4491554,58.8826639 82.3449077,58.7164592 82.3449077,58.4980655 C82.3449077,58.1771753 82.5745259,58.1297922 84.4204373,58.0697509 C85.3454843,58.0396735 86.1587005,57.9924549 86.2275832,57.9648372 C86.4363733,57.881137 86.3715373,57.7422779 85.9591965,57.390004 C85.7426986,57.2050399 85.5655613,56.9937504 85.5655613,56.9204698 C85.5655613,56.7249982 86.0467762,56.5074489 87.6746226,55.967006 C88.4568547,55.7073048 89.3298317,55.3827675 89.614569,55.2458156 C90.1090288,55.0079909 90.5039024,54.660387 90.5039024,54.4629488 C90.5039024,54.2996713 90.2138858,53.9955909 89.8144867,53.7400978 C89.6004343,53.6031685 89.4046623,53.4373605 89.3794449,53.371629 C89.3038236,53.1745677 89.8172921,52.7923893 91.0439033,52.1327563 C92.3027539,51.4557836 92.7225814,51.1794427 92.7225814,51.0277921 C92.7225814,50.9053943 92.6251375,50.872588 91.9710926,50.7747786 C90.4589167,50.548643 89.1820633,50.1082879 88.6967565,49.6455433 C88.467912,49.4273451 88.4605867,49.3910959 88.6142408,49.2374419 C88.9681554,48.88353 88.4687167,48.7860663 85.8160614,48.6913881 C83.6302623,48.613378 83.207499,48.5740513 83.1876033,48.4468928 C83.1814257,48.4075321 83.4144614,48.244249 83.7054188,48.0840462 C84.6038768,47.589354 84.8112218,47.3130822 84.457837,47.0815362 C84.1106809,46.8540677 83.7325179,46.8248034 81.1997808,46.8293971 C79.8023744,46.8319475 78.5475193,46.8093342 78.4112135,46.7792209 C78.1974161,46.7319569 78.1630201,46.6952772 78.1607191,46.5121112 C78.1581687,46.301561 78.1548816,46.2999253 77.7765117,46.3159003 C77.5666674,46.3247585 76.8379166,46.4777424 76.1570673,46.6558579 C75.4762153,46.8339717 74.8668982,46.9797065 74.8030285,46.9797065 C74.6300398,46.9797065 74.6598253,46.7435772 74.8913081,46.2798536 C75.2877232,45.4857295 75.2500344,45.3524399 74.6063979,45.2722583 C74.0507406,45.203041 74.035002,45.119823 74.4203343,44.2882059 C74.9653339,43.1119861 74.9998829,42.7021691 74.567876,42.5379211 C74.3383768,42.4506647 74.1150269,42.4929941 72.7105984,42.8899057 C71.5640263,43.213947 71.073599,43.3038991 71.0104632,43.2017421 C70.9866597,43.1632258 71.0307244,42.9470195 71.1083916,42.7212821 C71.2654518,42.2647749 71.249495,42.1845029 71.0016786,42.1845029 C70.6358083,42.1845029 68.2531803,43.4932577 66.1418843,44.8539377 C64.9351757,45.6316335 64.7528467,45.6405958 64.2340323,44.9477278 C63.9927235,44.6254647 63.7622569,44.49372 63.5693227,44.567756 C63.4081224,44.6296152 62.8818717,45.7242813 62.7324254,46.3086102 C62.4020493,47.6003631 62.684527,48.9335173 63.451021,49.7000079 C64.4146049,50.663591 67.9179712,51.7119993 72.1680726,52.3086467 C73.3965654,52.4811083 76.2533494,52.7793371 77.7480638,52.8911566 C79.1171101,52.9935766 78.2666954,52.9916326 75.5022404,52.8860275 C70.8820238,52.7095222 68.1113742,52.5262952 66.9215365,52.3185733 C66.3218865,52.2138864 66.0984779,52.2540065 66.0984779,52.4663814 C66.0984779,52.8099274 67.2174309,54.5373487 69.5767083,57.8360266 C72.3533711,61.7182884 75.1360839,65.3093859 78.0431953,68.7620551 C78.8005159,69.6614964 79.4083906,70.4091568 79.3940292,70.4235154 C79.3586187,70.4589258 76.931892,67.8745353 75.7895422,66.5848281 C73.3680777,63.8509916 71.2841744,61.3069848 67.8508767,56.8933707 C65.825697,54.2899403 65.3451126,53.7109584 65.3011049,53.8215367 C65.2712774,53.8964836 65.145663,54.5858284 65.0219636,55.3534156 C64.6862804,57.4363895 64.3507769,59.0791613 63.9154717,60.7712515 C63.2299893,63.4358001 62.5441601,65.3497242 62.3458825,65.1514416 C62.2840284,65.0895923 62.5141706,64.1385627 62.8030797,63.2621654 C63.1783829,62.1236695 63.3366344,61.4733878 63.552066,60.1844032 C63.9807581,57.6194125 64.2203995,53.8072802 64.0141257,52.8340907 C63.8898402,52.2477184 63.6922218,51.9261425 63.1112515,51.3648772 C62.4280279,50.7048304 62.0313382,50.4441233 61.5444422,50.335163 C61.2052327,50.259247 61.0554535,50.2677029 60.3805713,50.4008633 C59.4033171,50.5936769 58.6655935,50.86543 58.332105,51.1554494 C58.1269724,51.333842 58.0639168,51.4489175 58.0318827,51.7033394 C58.0095812,51.8804739 57.9474157,52.1124554 57.8937429,52.2188454 C57.75351,52.4968214 57.2557869,52.8136226 56.5153786,53.0961694 C55.4037338,53.5203864 55.0051033,53.7916209 55.0051033,54.1237724 C55.0051033,54.3964607 54.7547305,54.7365495 54.3064185,55.0728212 C53.2951489,55.8313575 53.0352513,56.2096055 53.1106541,56.8131078 C53.1526272,57.1490508 53.1381045,57.2105997 52.9695943,57.4108603 C52.8662766,57.5336464 52.6716846,57.6704312 52.5371677,57.7148218 C52.2638778,57.8050198 51.8560161,58.2257654 51.8560161,58.4174965 C51.8560161,58.7677698 52.1885547,58.9544369 52.9549872,59.0343796 C53.6333683,59.1051382 53.671033,59.1444564 53.6140824,59.7224124 L53.5657974,60.2124232 L53.8023517,60.3390859 C53.9996097,60.4447108 54.2733218,60.4703704 55.4500298,60.4935334 L56.861153,60.5213324 L56.8262725,60.8180763 C56.7120531,61.7898036 56.5796467,63.7880485 56.5796467,64.5400899 C56.5796467,65.5679054 56.6323697,65.6953219 57.0576796,65.6953219 C57.3191363,65.6953219 57.3300805,65.7047299 57.3071388,65.9100289 C57.2939392,66.0281223 57.0241066,66.6722491 56.7075069,67.3414318 C55.9756812,68.8882558 55.7795134,69.4088966 55.8066215,69.7324562 C55.8259533,69.9631739 55.8513394,69.991772 56.0542923,70.0114693 C56.2081365,70.0263748 56.4650193,69.9406088 56.8578687,69.7430827 C57.1754619,69.583407 57.486895,69.4527459 57.5499418,69.4527459 C57.7080123,69.4527459 57.6677904,69.6205658 57.0782098,71.4209277 C56.4998729,73.1869645 56.3674277,73.7133464 56.3659939,74.2515337 C56.3643786,74.8480989 56.5444406,74.9500258 57.1013816,74.6678502 C57.4608719,74.4857113 57.722321,74.286026 58.7625367,73.3990786 C59.5510104,72.7267986 59.9669409,72.4583326 60.0662347,72.557627 C60.0953942,72.5867975 60.1403804,72.8743686 60.1662052,73.1966955 C60.2218979,73.8917985 60.3331733,74.17638 60.5492657,74.17638 C61.1934225,74.17638 63.0244531,72.1474654 63.1354548,71.3106894 C63.1613524,71.1154559 63.2103521,70.9557206 63.2443408,70.9557206 C63.2783276,70.9557206 63.3949551,71.0583106 63.5035081,71.1836896 C64.0918955,71.8632693 64.2020773,71.9627479 64.4480321,72.0364308 C64.6755303,72.1045937 64.7557836,72.0950128 64.9997224,71.970569 C65.6002339,71.6642045 66.0350335,71.0399962 67.0773272,68.9879072 C67.5396033,68.0777714 67.893261,67.4583123 67.9151771,67.5203515 C67.9360335,67.579401 68.1132558,68.2637301 68.3089937,69.0410796 C68.8173275,71.0598777 69.2226661,71.8366066 69.7047113,71.7156285 C69.7992591,71.69191 70.0442305,71.4790053 70.2490903,71.2425351 C70.5560583,70.8882011 70.660887,70.8125826 70.8451766,70.8125826 C71.1675149,70.8125826 71.7340169,71.4411635 72.386285,72.5225594 C73.2594122,73.9701203 73.7948479,74.5267411 74.233534,74.4428793 C74.7492695,74.3442934 75.51249,74.7841385 77.0416712,76.06121 C78.2760893,77.0921172 78.7357847,77.4108113 79.1807078,77.5441077 C79.4483265,77.6242885 79.4976025,77.6199018 79.6250416,77.5045713 C79.7044572,77.4327076 79.7683779,77.2840579 79.7683779,77.1712353 C79.7683779,76.7748032 80.1212413,76.9134469 81.509764,77.8554425 C82.5128693,78.5359716 82.7843163,78.6355549 83.0129484,78.4069229 C83.132215,78.2876563 83.1680618,78.149432 83.1865831,77.737369 C83.221339,76.9638223 83.2447741,76.8960534 83.4772855,76.8960534 C83.5868692,76.8960534 83.9485766,77.0283467 84.2810823,77.1900429 C85.4174812,77.7426567 86.1739659,78.0581005 87.1043205,78.3673157 C88.1153462,78.7033579 88.2711369,78.7370114 88.1620576,78.5958372 L88.1620576,78.5958174 Z"
        id="path929-copy-3" fill="white" opacity="0.2"
        transform="translate(72.289299, 60.429444) scale(1, -1) translate(-72.289299, -60.429444) "></path>
      <path
        d="M179.291953,79.8686752 C178.165792,79.2860435 177.285366,78.9648472 176.235608,78.7536682 C174.935765,78.4921902 174.020072,78.0273884 172.387998,76.8006384 C171.380117,76.0430571 170.721417,75.6794794 170.356592,75.6793915 C170.068565,75.679315 169.799739,75.8952264 169.495316,76.3711138 C169.360993,76.5810885 169.206365,76.7528813 169.151693,76.7528813 C169.04685,76.7528813 168.895146,76.3427962 168.754555,75.679332 C168.51721,74.5592696 167.997694,73.3551216 167.462598,72.6848167 C167.134995,72.2744227 166.92935,72.1519002 166.737112,72.2525491 C166.670683,72.2873418 166.41706,72.5733854 166.173503,72.8882284 C165.92438,73.2102578 165.676822,73.4606615 165.607568,73.4606615 C165.437923,73.4606615 165.344421,73.3372208 164.762387,72.3449234 C164.248224,71.4683362 163.857598,71.0272755 163.595406,71.0272755 C163.320202,71.0272755 163.020472,71.2525155 161.870682,72.3233331 C160.773068,73.3455719 160.140296,73.8163444 159.861912,73.8178406 C159.793026,73.8178406 159.736664,73.7874374 159.736664,73.7494596 C159.736664,73.7114818 159.671013,73.6452714 159.590776,73.602326 C159.384496,73.4919347 158.839377,73.7556286 158.16212,74.2934419 C157.090487,75.1444205 156.45711,75.4979526 155.856734,75.5802502 C155.584248,75.6175904 155.50639,75.6001431 155.379439,75.4731772 C155.296006,75.389749 155.227744,75.2570703 155.227744,75.1783433 C155.227744,75.0592722 155.18003,75.0352053 154.943964,75.0352053 C154.512061,75.0352053 154.096041,75.197216 152.633325,75.935032 L151.291384,76.6119451 L151.291384,75.8923133 C151.291384,74.5861959 151.407487,73.8687857 151.910951,72.0639607 C152.058632,71.5345523 152.006973,71.2419825 151.765811,71.2419825 C151.589521,71.2419825 151.36017,71.3885465 150.832256,71.8385562 C150.655142,71.9895267 150.476648,72.0922952 150.435601,72.0669361 C150.312315,71.9907339 150.355207,71.6073087 150.579921,70.7767783 C151.062329,68.9938354 151.140911,68.6620665 151.283429,67.8066133 C151.365405,67.3145707 151.481443,66.3966874 151.541292,65.7668597 C151.681441,64.2920212 151.835674,63.258507 152.01922,62.5642598 C152.181851,61.9491222 152.156056,61.6985202 151.916778,61.569021 C151.814816,61.5138395 151.177449,61.463056 150.163309,61.4293033 C148.149123,61.3622739 148.053708,61.3295017 147.997406,60.6853806 C147.976762,60.4491966 147.922325,60.1892064 147.876436,60.1076201 C147.688965,59.7743323 146.974595,59.4055631 145.726804,58.9979632 C145.323327,58.8661715 144.993209,58.7394324 144.993209,58.7163317 C144.993209,58.6932367 145.333767,58.5176608 145.750003,58.326182 C146.75734,57.8627857 147.426595,57.2579459 147.426595,56.8109598 C147.426595,56.5454409 147.754252,56.0341232 148.306034,55.4385639 C148.945117,54.7487856 149.254831,54.1908471 149.182206,53.8601833 C149.144542,53.6886994 149.177743,53.6211713 149.392339,53.4327529 C149.728699,53.137423 149.920558,53.0431557 150.855635,52.7137841 C152.155435,52.255942 152.519795,51.9730976 152.598759,51.3606436 C152.686531,50.6798708 153.025548,50.4519387 154.856757,49.8425026 C155.68671,49.5662921 156.284151,49.3289321 156.327347,49.25825 C156.598308,48.8148543 154.608096,47.3773002 152.245792,46.3100985 C150.374223,45.4645895 149.300159,45.2563712 147.568177,45.4032953 C146.998262,45.4516438 146.04887,45.5056238 145.458416,45.5232556 C144.214618,45.5603975 144.041196,45.513244 144.004034,45.1277413 C143.984475,44.9248351 144.028682,44.8437397 144.301224,44.5825981 C145.189056,43.7319079 147.877862,43.3105677 149.598911,43.7524463 C151.508377,44.2427028 154.104458,45.4790002 156.30296,46.945026 C156.93805,47.368521 157.386805,47.6221659 157.477923,47.6091335 C157.606975,47.5906575 157.631568,47.5193945 157.675302,47.03714 C157.805784,45.5982996 159.170858,42.9001992 159.768342,42.9001992 C159.976681,42.9001992 160.446445,43.2415865 160.738933,43.6055516 C161.194694,44.1726838 161.536608,44.1544521 162.552256,43.508866 C162.893132,43.2921881 163.453839,42.935606 163.798271,42.7164571 C164.773801,42.0957671 166.715507,41.1648298 168.325085,40.5461098 C169.132035,40.235917 169.801564,39.9904352 169.812924,40.0002864 C169.824288,40.0107495 169.655195,40.3560802 169.437179,40.7680015 C169.219162,41.1799192 169.040783,41.6049016 169.040783,41.7124061 C169.040783,41.9471086 169.017518,41.9516693 170.18591,41.4880873 C170.638589,41.3084776 171.159369,41.1462937 171.343197,41.127678 L171.677428,41.0938276 L171.754327,41.3707727 C171.796621,41.5230878 171.832816,41.9536758 171.834763,42.3276327 C171.840317,43.3958251 172.033094,43.7803683 172.605725,43.865611 C172.790324,43.8930756 172.981616,43.9487056 173.030818,43.9892063 C173.173947,44.1070147 173.13557,44.4987598 172.913141,45.1904342 C172.79921,45.5447085 172.734598,45.8345683 172.769558,45.8345683 C172.804535,45.8345683 173.599267,45.4510388 174.535666,44.9822785 C176.153747,44.1722698 176.943469,43.8367164 177.029436,43.9226814 C177.094128,43.9873738 176.913448,44.2729317 176.521643,44.7252303 C176.31705,44.9614137 176.091107,45.2451538 176.019544,45.3557647 C175.899235,45.5417262 175.898229,45.5656677 176.006197,45.6736293 C176.103196,45.7706266 176.380588,45.7992089 177.645461,45.8425402 C178.655645,45.877153 179.456976,45.9452699 180.026813,46.0449964 C181.988571,46.3883217 183.44883,46.917764 183.324882,47.2407631 C183.234758,47.4756217 184.253973,47.8591773 186.253419,48.3428491 C187.484332,48.6406131 188.078455,48.8461643 188.078455,48.9742693 C188.078455,49.0128989 187.944608,49.1193796 187.781019,49.2108982 C187.173334,49.5508623 187.401397,49.6127059 189.581432,49.6991124 C191.313611,49.7677683 191.831719,49.8506808 191.971913,50.0816649 C192.038313,50.1910644 191.999201,50.2579265 191.721378,50.5099964 C191.338407,50.85747 190.712719,51.2328333 189.094329,52.0860024 C187.682467,52.8302935 187.333631,53.0576872 187.305438,53.2521301 C187.281153,53.419508 187.376035,53.4675059 188.203698,53.7065945 C188.845759,53.8920686 188.862923,53.9836297 188.346838,54.470206 C187.6706,55.1077953 186.729531,55.6773039 185.301098,56.3134169 C183.153443,57.2698136 183.132907,57.6331958 185.142731,59.1157619 C185.613538,59.4630541 185.986441,59.7595146 185.971402,59.774559 C185.956384,59.7895778 185.095776,59.6071726 184.058989,59.3691835 C181.949349,58.8849139 181.01112,58.7179101 180.39785,58.717485 C179.394843,58.7169183 179.476141,59.0862145 180.69601,60.0722918 C181.577474,60.7848223 181.609626,60.932568 180.883686,60.9347755 C180.464927,60.935909 180.205733,61.0851707 180.205733,61.3248289 C180.205733,61.5764567 180.363893,61.9077213 180.997577,62.9833817 C181.315875,63.523683 181.624741,64.0868185 181.683961,64.2348023 C181.82734,64.5931376 181.789203,64.8301008 181.583462,64.8593224 C181.158191,64.9197179 181.570795,65.4845736 182.842279,66.5826546 C183.689157,67.3140436 183.855818,67.4912121 183.855818,67.6600918 C183.855818,67.6911496 183.557901,67.7392694 183.193787,67.7670089 C182.491838,67.8204873 182.209699,67.9341459 182.209699,68.1634467 C182.209699,68.2397906 182.359006,68.714094 182.5415,69.2174489 C183.093292,70.7394494 183.846192,73.2154181 183.987204,73.9717526 C184.09271,74.5376538 183.937529,74.6334258 183.252027,74.4254858 C182.793405,74.2863604 182.639122,74.3358828 182.639122,74.6222042 C182.639122,75.0024444 183.148722,75.7583509 184.241468,76.9989919 C184.896144,77.7422827 185.584483,78.5973674 185.846089,78.9923345 C185.970734,79.1805262 186.002922,79.2864685 185.951169,79.3382155 C185.731826,79.5575642 183.465028,79.289886 181.639956,78.8291223 C180.629893,78.5741251 180.253261,78.5671484 180.219667,78.8028251 C180.207652,78.8871573 180.280102,79.2400376 180.380691,79.5870096 C180.481286,79.9339788 180.563587,80.2595107 180.563587,80.3104302 C180.563587,80.4840423 180.313333,80.3971115 179.291962,79.8686893 L179.291953,79.8686752 Z"
        id="path929-copy-4" fill="white" opacity="0.2"
        transform="translate(168.000000, 60.195726) scale(-1, -1) translate(-168.000000, -60.195726) "></path>
    </g>
  </g>
</svg>