<svg width="115.68" height="22.336" viewBox="0 0 115.68 22.336" xmlns="http://www.w3.org/2000/svg">
  <g id="svgGroup" stroke-linecap="round" fill-rule="evenodd" font-size="9pt" stroke="white" stroke-width="0.25mm"
    fill="white" style="stroke:white;stroke-width:0.25mm;fill:white">
    <path
      d="M 6.016 13.632 L 4.288 20.48 Q 4.095 21.282 3.746 21.63 A 1.026 1.026 0 0 1 3.632 21.728 Q 3.201 22.047 1.925 22.048 A 7.094 7.094 0 0 1 1.92 22.048 A 4.653 4.653 0 0 1 1.404 22.021 Q 0.876 21.962 0.555 21.772 A 1.197 1.197 0 0 1 0.464 21.712 Q 0.063 21.422 0.009 20.786 A 2.45 2.45 0 0 1 0 20.576 Q 0 20.224 0.096 19.904 L 4.48 2.592 A 12.078 12.078 0 0 1 4.653 1.965 Q 4.836 1.372 5.031 1.018 A 1.746 1.746 0 0 1 5.232 0.72 Q 5.632 0.256 6.688 0.256 A 6.781 6.781 0 0 1 7.614 0.317 A 5.43 5.43 0 0 1 8.272 0.448 Q 8.992 0.64 9.024 1.024 Q 9.024 1.088 8.608 2.752 Q 7.969 5.211 6.789 10.218 A 509.268 509.268 0 0 0 6.784 10.24 Q 11.52 9.28 15.776 8.928 L 17.248 2.976 Q 17.568 1.696 18.128 1.072 A 2.493 2.493 0 0 1 19.126 0.403 A 3.356 3.356 0 0 1 19.648 0.256 A 31.491 31.491 0 0 1 20.127 0.35 Q 20.774 0.483 21.084 0.583 A 2.057 2.057 0 0 1 21.2 0.624 A 1.138 1.138 0 0 1 21.425 0.74 Q 21.612 0.867 21.696 1.056 Q 21.28 2.24 21.072 3.248 A 223.532 223.532 0 0 0 21 3.597 Q 20.883 4.169 20.845 4.376 A 4.25 4.25 0 0 0 20.832 4.448 A 80.484 80.484 0 0 1 19.858 8.951 A 88.155 88.155 0 0 1 19.84 9.024 A 3.339 3.339 0 0 1 20.371 9.31 Q 21.088 9.793 21.088 10.496 Q 21.088 11.424 19.104 12.064 A 32.425 32.425 0 0 0 18.921 12.768 Q 18.631 13.927 18.123 16.163 A 495.5 495.5 0 0 0 17.792 17.632 Q 17.568 18.816 17.152 20.576 A 5.393 5.393 0 0 1 16.949 21.218 Q 16.684 21.891 16.302 22.159 A 0.951 0.951 0 0 1 15.744 22.336 Q 14.041 22.336 13.323 21.876 A 1.038 1.038 0 0 1 12.8 20.96 Q 12.8 20.709 14.432 14.295 A 1732.11 1732.11 0 0 1 14.944 12.288 Q 9.139 12.995 6.454 13.54 A 28.048 28.048 0 0 0 6.016 13.632 Z M 100 13.632 L 98.272 20.48 Q 98.079 21.282 97.73 21.63 A 1.026 1.026 0 0 1 97.616 21.728 Q 97.185 22.047 95.909 22.048 A 7.094 7.094 0 0 1 95.904 22.048 A 4.653 4.653 0 0 1 95.388 22.021 Q 94.86 21.962 94.539 21.772 A 1.197 1.197 0 0 1 94.448 21.712 Q 94.047 21.422 93.993 20.786 A 2.45 2.45 0 0 1 93.984 20.576 Q 93.984 20.224 94.08 19.904 L 98.464 2.592 A 12.078 12.078 0 0 1 98.637 1.965 Q 98.82 1.372 99.015 1.018 A 1.746 1.746 0 0 1 99.216 0.72 Q 99.616 0.256 100.672 0.256 A 6.781 6.781 0 0 1 101.598 0.317 A 5.43 5.43 0 0 1 102.256 0.448 Q 102.976 0.64 103.008 1.024 Q 103.008 1.088 102.592 2.752 Q 101.953 5.211 100.773 10.218 A 509.268 509.268 0 0 0 100.768 10.24 Q 105.504 9.28 109.76 8.928 L 111.232 2.976 Q 111.552 1.696 112.112 1.072 A 2.493 2.493 0 0 1 113.11 0.403 A 3.356 3.356 0 0 1 113.632 0.256 A 31.491 31.491 0 0 1 114.111 0.35 Q 114.758 0.483 115.068 0.583 A 2.057 2.057 0 0 1 115.184 0.624 A 1.138 1.138 0 0 1 115.409 0.74 Q 115.596 0.867 115.68 1.056 Q 115.264 2.24 115.056 3.248 A 223.532 223.532 0 0 0 114.984 3.597 Q 114.867 4.169 114.829 4.376 A 4.25 4.25 0 0 0 114.816 4.448 A 80.484 80.484 0 0 1 113.842 8.951 A 88.155 88.155 0 0 1 113.824 9.024 A 3.339 3.339 0 0 1 114.355 9.31 Q 115.072 9.793 115.072 10.496 Q 115.072 11.424 113.088 12.064 A 32.425 32.425 0 0 0 112.905 12.768 Q 112.615 13.927 112.107 16.163 A 495.5 495.5 0 0 0 111.776 17.632 Q 111.552 18.816 111.136 20.576 A 5.393 5.393 0 0 1 110.933 21.218 Q 110.668 21.891 110.286 22.159 A 0.951 0.951 0 0 1 109.728 22.336 Q 108.025 22.336 107.307 21.876 A 1.038 1.038 0 0 1 106.784 20.96 Q 106.784 20.709 108.416 14.295 A 1732.11 1732.11 0 0 1 108.928 12.288 Q 103.123 12.995 100.438 13.54 A 28.048 28.048 0 0 0 100 13.632 Z M 39.424 3.296 L 38.016 3.392 Q 37.281 3.441 36.152 3.518 A 2453.271 2453.271 0 0 0 35.424 3.568 Q 34.302 3.645 32.908 3.76 A 290.688 290.688 0 0 0 31.584 3.872 L 30.144 9.6 Q 32.06 9.296 33.354 9.107 A 132.426 132.426 0 0 1 33.488 9.088 Q 34.816 8.896 36.448 8.768 A 3.339 3.339 0 0 1 36.979 9.054 Q 37.696 9.537 37.696 10.24 A 1.243 1.243 0 0 1 37.533 10.843 Q 37.433 11.027 37.269 11.208 A 2.702 2.702 0 0 1 37.12 11.36 Q 36.544 11.904 35.808 12.128 L 33.984 12.32 Q 31.072 12.64 29.312 12.96 Q 28.947 14.632 28.293 17.143 A 202.216 202.216 0 0 1 28.224 17.408 L 27.968 18.4 Q 32.224 17.6 36.192 17.28 A 3.339 3.339 0 0 1 36.723 17.566 Q 37.44 18.049 37.44 18.752 A 1.243 1.243 0 0 1 37.277 19.355 Q 37.177 19.539 37.013 19.72 A 2.702 2.702 0 0 1 36.864 19.872 Q 36.288 20.416 35.552 20.64 Q 29.953 21.288 27.393 21.747 A 33.23 33.23 0 0 0 26.976 21.824 Q 26.709 22.002 25.864 22.015 A 8.886 8.886 0 0 1 25.728 22.016 A 1.849 1.849 0 0 1 24.536 21.577 A 2.805 2.805 0 0 1 24.144 21.184 A 3.349 3.349 0 0 1 23.712 20.524 A 2.406 2.406 0 0 1 23.456 19.456 Q 23.456 19.104 23.552 18.784 L 27.2 4.352 L 27.104 4.352 A 0.911 0.911 0 0 0 27.043 4.107 Q 26.937 3.834 26.656 3.488 A 0.588 0.588 0 0 0 26.637 3.454 Q 26.582 3.361 26.4 3.088 A 1.516 1.516 0 0 1 26.259 2.828 Q 26.188 2.655 26.178 2.487 A 0.922 0.922 0 0 1 26.176 2.432 A 1.477 1.477 0 0 1 26.669 1.433 Q 26.878 1.236 27.175 1.071 A 3.635 3.635 0 0 1 27.392 0.96 Q 29.23 0.715 32.192 0.479 A 211.992 211.992 0 0 1 34.112 0.336 Q 38.432 0.032 40.288 0 A 3.196 3.196 0 0 1 40.805 0.335 Q 41.44 0.847 41.44 1.536 A 1.11 1.11 0 0 1 41.248 2.15 Q 41.14 2.317 40.97 2.475 A 2.528 2.528 0 0 1 40.816 2.608 Q 40.192 3.104 39.424 3.296 Z M 53.824 14.528 Q 49.632 15.232 47.136 15.808 A 100.293 100.293 0 0 0 46.826 16.302 Q 46.408 16.972 46.216 17.311 A 6.608 6.608 0 0 0 46.144 17.44 A 42.92 42.92 0 0 1 45.66 18.272 Q 45.467 18.595 45.288 18.879 A 20.926 20.926 0 0 1 44.944 19.408 A 9.715 9.715 0 0 1 44.144 20.444 A 8.456 8.456 0 0 1 43.808 20.8 A 14.307 14.307 0 0 1 43.43 21.165 Q 43.09 21.481 42.827 21.674 A 3.393 3.393 0 0 1 42.704 21.76 A 1.718 1.718 0 0 1 41.898 22.039 A 2.16 2.16 0 0 1 41.696 22.048 Q 40.736 22.048 40.016 21.616 Q 39.296 21.184 39.296 20.736 Q 39.36 20.672 40 19.312 A 9.045 9.045 0 0 1 40.506 18.395 Q 41.18 17.312 42.368 15.904 A 1.065 1.065 0 0 0 42.349 15.713 Q 42.314 15.522 42.215 15.28 A 3.481 3.481 0 0 0 42.208 15.264 Q 42.048 14.88 42.048 14.816 A 0.879 0.879 0 0 1 42.253 14.296 Q 42.822 13.539 44.96 12.576 Q 46.592 10.144 48.4 7.776 Q 49.643 6.148 51.272 4.112 A 339.899 339.899 0 0 1 52.832 2.176 Q 53.472 1.376 54.464 0.864 A 4.689 4.689 0 0 1 55.565 0.454 A 3.933 3.933 0 0 1 56.448 0.352 A 8.777 8.777 0 0 1 56.984 0.367 Q 57.616 0.406 57.984 0.544 Q 58.289 0.658 58.463 0.818 A 0.729 0.729 0 0 1 58.64 1.056 A 1.356 1.356 0 0 1 58.722 1.306 Q 58.782 1.566 58.784 1.928 A 4.549 4.549 0 0 1 58.784 1.952 Q 58.686 2.687 58.644 3.141 A 10.11 10.11 0 0 0 58.624 3.392 Q 58.144 7.264 57.904 10.032 Q 57.664 12.8 57.664 15.552 Q 57.664 18.08 57.888 20.192 A 2.415 2.415 0 0 1 57.369 21.406 A 3.038 3.038 0 0 1 57.216 21.584 A 2.075 2.075 0 0 1 56.716 21.988 A 1.684 1.684 0 0 1 55.872 22.208 A 4.569 4.569 0 0 1 55.218 22.165 Q 54.448 22.053 54.074 21.652 A 1.211 1.211 0 0 1 53.936 21.472 A 2.251 2.251 0 0 1 53.701 20.945 Q 53.526 20.384 53.485 19.526 A 11.534 11.534 0 0 1 53.472 18.976 Q 53.472 17.696 53.824 14.528 Z M 80 19.904 L 83.904 4.416 Q 83.876 4.416 82.323 4.585 A 1993.681 1993.681 0 0 0 81.824 4.64 A 121.935 121.935 0 0 0 80.965 4.71 Q 79.348 4.847 78.815 4.948 A 2.964 2.964 0 0 0 78.752 4.96 A 2.335 2.335 0 0 1 78.251 4.719 A 1.763 1.763 0 0 1 77.776 4.272 A 1.766 1.766 0 0 1 77.452 3.403 A 2.263 2.263 0 0 1 77.44 3.168 A 1.453 1.453 0 0 1 77.638 2.442 A 1.952 1.952 0 0 1 77.808 2.192 Q 78.176 1.728 78.688 1.504 A 21.509 21.509 0 0 1 79.805 1.315 Q 81.182 1.114 83.168 0.96 Q 86.048 0.736 90.56 0.48 Q 92.554 0.397 93.421 0.314 A 10.28 10.28 0 0 0 93.664 0.288 A 2.271 2.271 0 0 1 94.519 0.945 A 2.654 2.654 0 0 1 94.544 0.976 A 1.822 1.822 0 0 1 94.794 1.387 A 1.416 1.416 0 0 1 94.912 1.952 A 1.243 1.243 0 0 1 94.749 2.555 Q 94.649 2.739 94.485 2.92 A 2.702 2.702 0 0 1 94.336 3.072 Q 93.76 3.616 93.024 3.84 L 87.424 4.128 A 0.43 0.43 0 0 1 87.657 4.341 Q 87.749 4.514 87.77 4.811 A 2.613 2.613 0 0 1 87.776 4.992 A 3.702 3.702 0 0 1 87.771 5.193 Q 87.761 5.379 87.73 5.504 A 0.809 0.809 0 0 1 87.712 5.568 Q 87.225 7.743 86.419 11.071 A 629.226 629.226 0 0 1 86.224 11.872 A 1666.563 1666.563 0 0 0 85.816 13.55 Q 85.348 15.477 85.095 16.546 A 147.487 147.487 0 0 0 84.96 17.12 Q 84.771 17.907 84.613 18.54 A 142.112 142.112 0 0 1 84.608 18.56 L 84.32 19.712 A 5.71 5.71 0 0 1 84.112 20.422 Q 83.883 21.041 83.536 21.44 A 1.596 1.596 0 0 1 82.871 21.886 Q 82.435 22.048 81.824 22.048 A 4.653 4.653 0 0 1 81.308 22.021 Q 80.78 21.962 80.459 21.772 A 1.197 1.197 0 0 1 80.368 21.712 Q 79.967 21.422 79.913 20.786 A 2.45 2.45 0 0 1 79.904 20.576 Q 79.904 20.224 80 19.904 Z M 61.664 18.784 L 65.76 2.592 A 12.078 12.078 0 0 1 65.933 1.965 Q 66.116 1.372 66.311 1.018 A 1.746 1.746 0 0 1 66.512 0.72 Q 66.912 0.256 67.968 0.256 A 6.554 6.554 0 0 1 68.63 0.288 Q 68.968 0.322 69.259 0.394 A 3.568 3.568 0 0 1 69.456 0.448 A 1.835 1.835 0 0 1 69.701 0.541 Q 70.087 0.724 70.112 1.024 Q 70.112 1.806 66.97 14.473 A 2208.316 2208.316 0 0 1 65.984 18.432 A 47.105 47.105 0 0 1 68.102 18.125 Q 69.199 17.989 70.461 17.874 A 108.75 108.75 0 0 1 73.152 17.664 L 74.24 17.568 A 3.339 3.339 0 0 1 74.771 17.854 Q 75.488 18.337 75.488 19.04 A 1.243 1.243 0 0 1 75.325 19.643 Q 75.225 19.827 75.061 20.008 A 2.702 2.702 0 0 1 74.912 20.16 Q 74.336 20.704 73.6 20.928 Q 71.979 21.105 71.227 21.146 A 11.055 11.055 0 0 1 71.104 21.152 Q 66.816 21.504 65.056 21.824 Q 64.789 22.002 63.971 22.015 A 8.313 8.313 0 0 1 63.84 22.016 A 1.849 1.849 0 0 1 62.648 21.577 A 2.805 2.805 0 0 1 62.256 21.184 A 3.349 3.349 0 0 1 61.824 20.524 A 2.406 2.406 0 0 1 61.568 19.456 Q 61.568 19.104 61.664 18.784 Z M 51.424 11.84 L 53.984 11.456 Q 54.201 8.103 54.473 6.168 A 20.862 20.862 0 0 1 54.656 5.056 A 19.735 19.735 0 0 0 53.991 5.898 Q 52.589 7.753 49.664 12.128 Q 50.237 12.001 51.414 11.841 A 72.774 72.774 0 0 1 51.424 11.84 Z"
      vector-effect="non-scaling-stroke" />
  </g>
</svg>