<svg viewBox="0 0 228.096 44.16" xmlns="http://www.w3.org/2000/svg">
  <g id="svgGroup" stroke-linecap="round" fill-rule="evenodd" font-size="9pt" stroke="#c74d62" stroke-width="0.25mm"
    fill="#c74d62" style="stroke:#c74d62;stroke-width:0.25mm;fill:#c74d62">
    <path
      d="M 99.904 42.112 L 99.776 42.24 L 89.344 14.336 L 85.376 30.464 A 474.405 474.405 0 0 0 84.215 35.012 Q 83.573 37.577 82.88 40.448 A 7.67 7.67 0 0 1 82.599 41.372 Q 82.225 42.356 81.651 42.833 A 2.067 2.067 0 0 1 81.504 42.944 A 2.571 2.571 0 0 1 80.853 43.253 Q 80.183 43.476 79.133 43.548 A 16.203 16.203 0 0 1 78.016 43.584 Q 76.217 43.584 75.286 43.032 A 2.395 2.395 0 0 1 75.104 42.912 A 2.082 2.082 0 0 1 74.354 41.863 Q 74.232 41.504 74.193 41.06 A 4.899 4.899 0 0 1 74.176 40.64 Q 74.176 39.936 74.368 39.296 L 83.136 4.672 A 24.155 24.155 0 0 1 83.483 3.419 Q 84.034 1.631 84.64 0.928 Q 85.391 0.057 87.298 0.004 A 9.076 9.076 0 0 1 87.552 0 Q 89.28 0 90.624 0.384 A 4.131 4.131 0 0 1 91.151 0.57 Q 91.982 0.936 92.032 1.536 L 92.032 1.728 L 102.336 30.272 Q 106.041 12.374 107.36 7.624 A 22.926 22.926 0 0 1 107.648 6.656 A 15.365 15.365 0 0 1 108.666 4.262 A 11.598 11.598 0 0 1 110.08 2.176 Q 111.557 0.453 113.329 0.032 A 4.974 4.974 0 0 1 113.472 0 A 62.984 62.984 0 0 1 114.43 0.188 Q 116.001 0.511 116.576 0.736 A 2.277 2.277 0 0 1 117.025 0.968 Q 117.336 1.178 117.504 1.474 A 1.41 1.41 0 0 1 117.568 1.6 Q 116.224 6.784 114.048 16.288 Q 112.27 24.052 111.432 27.652 A 618.153 618.153 0 0 1 111.104 29.056 A 626.065 626.065 0 0 1 109.909 34.486 Q 109.35 36.969 108.826 39.189 A 364.249 364.249 0 0 1 108.48 40.64 Q 107.868 43.044 106.779 43.806 A 1.902 1.902 0 0 1 105.664 44.16 A 19.052 19.052 0 0 1 103.806 44.077 Q 100.466 43.748 99.904 42.112 Z M 192.832 37.12 L 193.472 37.184 A 1.518 1.518 0 0 1 193.97 37.373 Q 194.556 37.707 195.264 38.592 A 6.334 6.334 0 0 1 195.793 39.354 Q 196.037 39.772 196.16 40.168 A 2.648 2.648 0 0 1 196.288 40.96 Q 196.288 41.856 195.2 42.048 Q 194.654 42.147 193.723 42.477 A 26.43 26.43 0 0 0 193.152 42.688 A 7.364 7.364 0 0 1 191.731 43.062 A 6.192 6.192 0 0 1 190.784 43.136 A 9.072 9.072 0 0 1 190.042 43.108 Q 189.317 43.048 188.844 42.862 A 2.296 2.296 0 0 1 188.736 42.816 A 7.939 7.939 0 0 1 187.521 42.158 Q 186.302 41.371 184.742 39.93 A 43.214 43.214 0 0 1 183.52 38.752 A 49.992 49.992 0 0 1 178.056 32.237 A 55.617 55.617 0 0 1 177.536 31.488 Q 175.73 28.842 174.751 26.609 A 15.953 15.953 0 0 1 173.952 24.384 L 169.92 40.448 A 7.67 7.67 0 0 1 169.639 41.372 Q 169.265 42.356 168.691 42.833 A 2.067 2.067 0 0 1 168.544 42.944 A 2.571 2.571 0 0 1 167.893 43.253 Q 167.223 43.476 166.173 43.548 A 16.203 16.203 0 0 1 165.056 43.584 Q 163.257 43.584 162.326 43.032 A 2.395 2.395 0 0 1 162.144 42.912 A 2.082 2.082 0 0 1 161.394 41.863 Q 161.272 41.504 161.233 41.06 A 4.899 4.899 0 0 1 161.216 40.64 Q 161.216 39.936 161.408 39.296 L 169.152 9.472 L 168.96 2.688 A 2.157 2.157 0 0 1 169.63 1.58 Q 169.915 1.318 170.312 1.101 A 4.808 4.808 0 0 1 170.592 0.96 Q 171.761 0.416 172.768 0.335 A 4.344 4.344 0 0 1 173.12 0.32 A 4.69 4.69 0 0 1 175.154 0.802 Q 175.797 1.108 176.436 1.61 A 8.6 8.6 0 0 1 176.544 1.696 A 5.132 5.132 0 0 1 177.636 2.889 A 4.164 4.164 0 0 1 178.304 5.056 A 6.477 6.477 0 0 1 178.201 5.942 Q 177.815 8.304 175.993 15.953 A 897.495 897.495 0 0 1 175.104 19.648 Q 177.242 16.716 181.39 12.619 A 119.75 119.75 0 0 1 181.792 12.224 A 98.228 98.228 0 0 1 187.923 6.694 A 84.32 84.32 0 0 1 190.72 4.48 Q 194.166 1.871 196.477 1.003 A 7.232 7.232 0 0 1 197.76 0.64 A 4.075 4.075 0 0 1 198.166 0.663 Q 198.607 0.707 199.223 0.839 A 18.597 18.597 0 0 1 199.616 0.928 A 3.144 3.144 0 0 1 200.28 1.16 Q 200.706 1.37 200.969 1.698 A 1.783 1.783 0 0 1 201.216 2.112 Q 202.066 3.811 202.252 4.886 A 3.266 3.266 0 0 1 202.304 5.44 Q 202.304 5.986 202.118 6.253 A 0.62 0.62 0 0 1 202.048 6.336 A 1.648 1.648 0 0 1 201.816 6.55 Q 201.375 6.896 200.368 7.404 A 26.824 26.824 0 0 1 199.936 7.616 A 304.015 304.015 0 0 1 199.235 7.952 Q 198.082 8.504 197.632 8.704 Q 196.233 9.331 193.797 11.141 A 70.573 70.573 0 0 0 192.096 12.448 Q 188.416 15.36 185.184 18.464 Q 182.377 21.16 181.525 22.431 A 3.942 3.942 0 0 0 181.312 22.784 Q 181.783 24.406 183.537 26.99 A 43.848 43.848 0 0 0 184.384 28.192 Q 186.88 31.616 189.472 34.368 Q 192.064 37.12 192.832 37.12 Z M 128.192 29.44 L 128.128 30.336 A 8.385 8.385 0 0 0 128.319 32.177 A 5.821 5.821 0 0 0 129.408 34.528 Q 130.688 36.16 132.544 36.896 A 10.511 10.511 0 0 0 134.825 37.526 A 8.997 8.997 0 0 0 136.192 37.632 Q 139.277 37.632 141.382 36.561 A 7.474 7.474 0 0 0 142.656 35.744 A 10.945 10.945 0 0 0 145.38 32.488 A 14.3 14.3 0 0 0 146.272 30.56 Q 147.463 27.415 148.508 22.083 A 107.7 107.7 0 0 0 148.608 21.568 Q 149.184 18.688 150.4 13.248 Q 151.538 8.158 151.947 6.822 A 7.19 7.19 0 0 1 152 6.656 Q 152.576 4.992 152.704 4.096 A 17.984 17.984 0 0 1 152.941 3.264 Q 153.186 2.483 153.443 1.974 A 4.53 4.53 0 0 1 153.504 1.856 A 3.312 3.312 0 0 1 154.162 1.017 A 4.565 4.565 0 0 1 154.816 0.512 Q 155.072 0.448 155.52 0.352 A 6.345 6.345 0 0 1 155.769 0.304 Q 156.005 0.263 156.171 0.257 A 1.524 1.524 0 0 1 156.224 0.256 Q 157.79 0.256 158.975 0.455 A 9.404 9.404 0 0 1 159.84 0.64 A 7.05 7.05 0 0 1 160.413 0.817 Q 161.336 1.15 161.536 1.6 Q 160.801 4.491 159.635 9.539 A 992.373 992.373 0 0 0 158.88 12.832 Q 157.184 20.288 156.416 24.64 A 33.488 33.488 0 0 1 153.899 32.894 Q 149.512 42.257 139.463 43.794 A 27.555 27.555 0 0 1 135.296 44.096 A 19.204 19.204 0 0 1 130.807 43.59 A 15.86 15.86 0 0 1 127.296 42.304 A 14.054 14.054 0 0 1 122.605 38.529 A 13.73 13.73 0 0 1 121.76 37.344 A 12.953 12.953 0 0 1 119.762 30.892 A 15.662 15.662 0 0 1 119.744 30.144 Q 119.744 28.096 120.32 25.92 L 125.632 4.928 A 24.155 24.155 0 0 1 125.979 3.675 Q 126.53 1.887 127.136 1.184 Q 127.887 0.313 129.794 0.26 A 9.076 9.076 0 0 1 130.048 0.256 Q 131.511 0.256 132.631 0.531 A 7.136 7.136 0 0 1 133.024 0.64 Q 134.272 1.024 134.336 1.792 A 0.49 0.49 0 0 1 134.514 1.992 Q 134.614 2.182 134.644 2.512 A 3.418 3.418 0 0 1 134.656 2.816 Q 134.656 3.855 134.235 5.735 A 40.021 40.021 0 0 1 133.952 6.912 Q 133.322 9.374 132.18 13.167 A 313.56 313.56 0 0 1 131.904 14.08 Q 130.368 19.392 129.408 23.104 Q 128.448 26.816 128.192 29.44 Z M 48.063 30.761 A 117.691 117.691 0 0 0 46.528 31.104 Q 45.203 33.202 44.688 34.109 A 13.218 13.218 0 0 0 44.544 34.368 Q 43.2 36.736 42.144 38.304 Q 41.088 39.872 39.872 41.088 A 28.614 28.614 0 0 1 39.116 41.818 Q 38.437 42.45 37.91 42.835 A 6.787 6.787 0 0 1 37.664 43.008 Q 36.8 43.584 35.648 43.584 Q 33.728 43.584 32.288 42.72 A 5.672 5.672 0 0 1 31.701 42.32 Q 30.848 41.65 30.848 40.96 Q 30.976 40.832 32.256 38.112 Q 33.536 35.392 36.992 31.296 A 2.129 2.129 0 0 0 36.954 30.914 Q 36.884 30.532 36.685 30.047 A 6.949 6.949 0 0 0 36.672 30.016 A 21.824 21.824 0 0 1 36.563 29.751 Q 36.352 29.224 36.352 29.12 A 1.758 1.758 0 0 1 36.763 28.08 Q 37.899 26.567 42.176 24.64 Q 45.44 19.776 49.056 15.04 Q 51.542 11.784 54.799 7.711 A 679.814 679.814 0 0 1 57.92 3.84 A 9.741 9.741 0 0 1 60.581 1.55 A 11.513 11.513 0 0 1 61.184 1.216 A 9.379 9.379 0 0 1 63.385 0.395 A 7.866 7.866 0 0 1 65.152 0.192 Q 67.2 0.192 68.224 0.576 A 3.802 3.802 0 0 1 68.742 0.812 Q 68.999 0.956 69.183 1.124 A 1.458 1.458 0 0 1 69.536 1.6 A 2.711 2.711 0 0 1 69.7 2.101 Q 69.82 2.619 69.824 3.344 A 9.07 9.07 0 0 1 69.824 3.392 Q 69.628 4.862 69.545 5.769 A 20.219 20.219 0 0 0 69.504 6.272 Q 68.544 14.016 68.064 19.552 Q 67.584 25.088 67.584 30.592 Q 67.584 35.648 68.032 39.872 A 4.83 4.83 0 0 1 66.993 42.299 A 6.077 6.077 0 0 1 66.688 42.656 Q 65.536 43.904 64 43.904 Q 61.056 43.904 60.128 42.432 A 4.501 4.501 0 0 1 59.659 41.378 Q 59.307 40.256 59.225 38.54 A 23.067 23.067 0 0 1 59.2 37.44 Q 59.2 34.88 59.904 28.544 Q 52.748 29.746 48.063 30.761 Z M 5.12 39.296 L 12.928 8.32 Q 12.864 8.32 8.768 8.768 Q 4.078 9.134 2.75 9.383 A 5.927 5.927 0 0 0 2.624 9.408 A 4.671 4.671 0 0 1 1.622 8.925 A 3.527 3.527 0 0 1 0.672 8.032 A 3.532 3.532 0 0 1 0.024 6.294 A 4.527 4.527 0 0 1 0 5.824 A 2.907 2.907 0 0 1 0.397 4.372 A 3.903 3.903 0 0 1 0.736 3.872 Q 1.472 2.944 2.496 2.496 A 43.017 43.017 0 0 1 4.73 2.117 Q 7.485 1.717 11.456 1.408 Q 16.609 1.007 24.373 0.555 A 1274.673 1274.673 0 0 1 26.24 0.448 Q 30.228 0.282 31.963 0.116 A 20.561 20.561 0 0 0 32.448 0.064 A 4.543 4.543 0 0 1 34.159 1.379 A 5.311 5.311 0 0 1 34.208 1.44 A 3.644 3.644 0 0 1 34.708 2.263 A 2.832 2.832 0 0 1 34.944 3.392 A 2.486 2.486 0 0 1 34.619 4.598 Q 34.332 5.122 33.792 5.632 Q 32.64 6.72 31.168 7.168 L 19.968 7.744 Q 20.672 8 20.672 9.472 Q 20.672 10.24 20.544 10.624 Q 19.571 14.975 17.957 21.631 A 1258.898 1258.898 0 0 1 17.568 23.232 Q 15.68 30.976 15.04 33.728 A 374.218 374.218 0 0 1 14.678 35.226 Q 14.499 35.958 14.336 36.608 L 13.76 38.912 A 11.42 11.42 0 0 1 13.344 40.331 Q 12.885 41.57 12.192 42.368 A 3.192 3.192 0 0 1 10.861 43.261 Q 10.33 43.458 9.669 43.535 A 7.799 7.799 0 0 1 8.768 43.584 Q 6.969 43.584 6.038 43.032 A 2.395 2.395 0 0 1 5.856 42.912 A 2.082 2.082 0 0 1 5.106 41.863 Q 4.984 41.504 4.945 41.06 A 4.899 4.899 0 0 1 4.928 40.64 Q 4.928 39.936 5.12 39.296 Z M 224.32 7.168 L 220.8 7.616 A 316.353 316.353 0 0 1 220.189 10.246 Q 219.17 14.566 217.143 22.847 A 4864.474 4864.474 0 0 1 215.808 28.288 L 214.016 35.456 L 218.944 34.944 A 6.677 6.677 0 0 1 220.007 35.516 Q 220.544 35.878 220.88 36.302 A 2.489 2.489 0 0 1 221.44 37.888 A 2.486 2.486 0 0 1 221.115 39.094 Q 220.828 39.618 220.288 40.128 Q 219.136 41.216 217.664 41.664 L 215.104 41.984 Q 207.35 42.828 202.552 43.716 A 67.34 67.34 0 0 0 200.64 44.096 A 4.671 4.671 0 0 1 199.638 43.613 A 3.527 3.527 0 0 1 198.688 42.72 A 3.532 3.532 0 0 1 198.04 40.982 A 4.527 4.527 0 0 1 198.016 40.512 A 2.574 2.574 0 0 1 198.87 38.603 Q 199.249 38.239 199.796 37.925 A 7.345 7.345 0 0 1 200.512 37.568 Q 202.962 37.078 204.512 36.813 A 52.949 52.949 0 0 1 205.376 36.672 L 212.416 8.704 Q 209.792 9.088 207.296 9.6 A 4.671 4.671 0 0 1 206.294 9.117 A 3.527 3.527 0 0 1 205.344 8.224 A 3.532 3.532 0 0 1 204.696 6.486 A 4.527 4.527 0 0 1 204.672 6.016 A 2.574 2.574 0 0 1 205.526 4.107 Q 205.905 3.743 206.452 3.429 A 7.345 7.345 0 0 1 207.168 3.072 Q 216.32 1.216 225.6 0.448 A 6.677 6.677 0 0 1 226.663 1.02 Q 227.2 1.382 227.536 1.806 A 2.489 2.489 0 0 1 228.096 3.392 A 2.486 2.486 0 0 1 227.771 4.598 Q 227.484 5.122 226.944 5.632 Q 225.792 6.72 224.32 7.168 Z M 55.104 23.168 L 60.224 22.4 Q 60.658 15.693 61.202 11.824 A 41.725 41.725 0 0 1 61.568 9.6 A 39.47 39.47 0 0 0 60.237 11.283 Q 57.44 14.986 51.61 23.705 A 1162.587 1162.587 0 0 0 51.584 23.744 Q 52.731 23.489 55.083 23.171 A 112.378 112.378 0 0 1 55.104 23.168 Z"
      vector-effect="non-scaling-stroke" />
  </g>
</svg>